<svg xmlns="http://www.w3.org/2000/svg" version="1.1" xmlns:xlink="http://www.w3.org/1999/xlink" xmlns:svgjs="http://svgjs.dev/svgjs" width="1500" height="1500" viewBox="0 0 1500 1500"><rect width="1500" height="1500" fill="#ffffff"></rect><g transform="matrix(0.6666666666666666,0,0,0.6666666666666666,249.39393939393938,609.0356649029376)"><svg viewBox="0 0 396 111" data-background-color="#ffffff" preserveAspectRatio="xMidYMid meet" height="420" width="1500" xmlns="http://www.w3.org/2000/svg" xmlns:xlink="http://www.w3.org/1999/xlink"><g id="tight-bounds" transform="matrix(1,0,0,1,0.2400000000000091,0.38228998490689037)"><svg viewBox="0 0 395.52 110.23542003018619" height="110.23542003018619" width="395.52"><g><svg viewBox="0 0 632.9850974182876 176.41934184555336" height="110.23542003018619" width="395.52"><g><rect width="7.318634989575423" height="176.41934184555336" x="210.9877320895095" y="0" fill="#000000" opacity="1" stroke-width="0" stroke="transparent" fill-opacity="1" class="rect-yte-0" data-fill-palette-color="primary" rx="1%" id="yte-0" data-palette-color="#111111"></rect></g><g transform="matrix(1,0,0,1,237.4650974182876,0.4388540841929114)"><svg viewBox="0 0 395.52 175.54163367716754" height="175.54163367716754" width="395.52"><g id="textblocktransform"><svg viewBox="0 0 395.52 175.54163367716754" height="175.54163367716754" width="395.52" id="textblock"><g><svg viewBox="0 0 395.52 175.54163367716754" height="175.54163367716754" width="395.52"><g transform="matrix(1,0,0,1,0,0)"><svg width="395.52" viewBox="3.9000000000000004 -35 179.35 75.4" height="175.54163367716754" data-palette-color="#111111"><svg></svg><svg></svg><g class="wordmark-text-0" data-fill-palette-color="primary" id="text-0"><path d="M7.4 0h-3.5v-35h20.9v2.9h-17.4v13.1h15v2.9h-15zM36.6 0.6v0c-2.033 0-3.727-0.367-5.08-1.1-1.347-0.733-2.347-1.683-3-2.85-0.647-1.167-0.97-2.45-0.97-3.85v0c0-1.733 0.443-3.2 1.33-4.4 0.88-1.2 2.13-2.1 3.75-2.7 1.613-0.6 3.47-0.9 5.57-0.9v0h6.8c0-1.633-0.25-3.017-0.75-4.15-0.5-1.133-1.223-1.993-2.17-2.58-0.953-0.58-2.163-0.87-3.63-0.87v0c-1.733 0-3.217 0.433-4.45 1.3-1.233 0.867-2 2.133-2.3 3.8v0h-3.65c0.2-1.767 0.81-3.25 1.83-4.45 1.013-1.2 2.277-2.11 3.79-2.73 1.52-0.613 3.113-0.92 4.78-0.92v0c2.3 0 4.193 0.44 5.68 1.32 1.48 0.887 2.577 2.097 3.29 3.63 0.72 1.533 1.08 3.3 1.08 5.3v0 15.55h-3.2l-0.15-4.6v0c-0.333 0.7-0.757 1.367-1.27 2-0.52 0.633-1.12 1.183-1.8 1.65-0.687 0.467-1.48 0.843-2.38 1.13-0.9 0.28-1.933 0.42-3.1 0.42zM37-2.5v0c1.267 0 2.383-0.25 3.35-0.75 0.967-0.5 1.8-1.167 2.5-2 0.7-0.833 1.233-1.783 1.6-2.85 0.367-1.067 0.55-2.15 0.55-3.25v0-0.9h-6.55c-1.767 0-3.183 0.217-4.25 0.65-1.067 0.433-1.833 1.017-2.3 1.75-0.467 0.733-0.7 1.583-0.7 2.55v0c0 0.967 0.227 1.807 0.68 2.52 0.447 0.72 1.103 1.28 1.97 1.68 0.867 0.4 1.917 0.6 3.15 0.6zM58.6 0h-3.5v-25.2h3.2l0.25 4.85v0c0.533-1.167 1.25-2.15 2.15-2.95 0.9-0.8 1.983-1.417 3.25-1.85 1.267-0.433 2.7-0.65 4.3-0.65v0 3.65h-1.35c-1.067 0-2.1 0.14-3.1 0.42-1 0.287-1.883 0.763-2.65 1.43-0.767 0.667-1.383 1.567-1.85 2.7-0.467 1.133-0.7 2.55-0.7 4.25v0zM82.85 0.6v0c-2.333 0-4.393-0.55-6.18-1.65-1.78-1.1-3.18-2.643-4.2-4.63-1.013-1.98-1.52-4.303-1.52-6.97v0c0-2.667 0.5-4.983 1.5-6.95 1-1.967 2.407-3.493 4.22-4.58 1.82-1.08 3.913-1.62 6.28-1.62v0c2.433 0 4.5 0.55 6.2 1.65 1.7 1.1 2.993 2.533 3.88 4.3 0.88 1.767 1.32 3.7 1.32 5.8v0c0 0.333 0 0.673 0 1.02 0 0.353-0.017 0.763-0.05 1.23v0h-20.7v-2.95h17.35c-0.1-2.567-0.907-4.55-2.42-5.95-1.52-1.4-3.43-2.1-5.73-2.1v0c-1.467 0-2.85 0.34-4.15 1.02-1.3 0.687-2.34 1.687-3.12 3-0.787 1.32-1.18 2.98-1.18 4.98v0 1.3c0 2.267 0.41 4.15 1.23 5.65 0.813 1.5 1.87 2.617 3.17 3.35 1.3 0.733 2.667 1.1 4.1 1.1v0c1.9 0 3.467-0.427 4.7-1.28 1.233-0.847 2.117-2.02 2.65-3.52v0h3.45c-0.4 1.467-1.083 2.79-2.05 3.97-0.967 1.187-2.183 2.12-3.65 2.8-1.467 0.687-3.167 1.03-5.1 1.03zM109.3 0.6v0c-2 0-3.757-0.333-5.27-1-1.52-0.667-2.737-1.627-3.65-2.88-0.92-1.247-1.48-2.737-1.68-4.47v0h3.65c0.167 0.967 0.54 1.85 1.12 2.65 0.587 0.8 1.38 1.433 2.38 1.9 1 0.467 2.183 0.7 3.55 0.7v0c1.267 0 2.31-0.183 3.13-0.55 0.813-0.367 1.43-0.877 1.85-1.53 0.413-0.647 0.62-1.37 0.62-2.17v0c0-1.1-0.26-1.96-0.78-2.58-0.513-0.613-1.253-1.07-2.22-1.37-0.967-0.3-2.133-0.583-3.5-0.85v0c-1.133-0.2-2.207-0.467-3.22-0.8-1.02-0.333-1.937-0.767-2.75-1.3-0.82-0.533-1.47-1.21-1.95-2.03-0.487-0.813-0.73-1.77-0.73-2.87v0c0-1.433 0.357-2.693 1.07-3.78 0.72-1.08 1.747-1.93 3.08-2.55 1.333-0.613 2.9-0.92 4.7-0.92v0c2.567 0 4.667 0.64 6.3 1.92 1.633 1.287 2.583 3.163 2.85 5.63v0h-3.5c-0.133-1.367-0.7-2.45-1.7-3.25-1-0.8-2.35-1.2-4.05-1.2v0c-1.667 0-2.94 0.34-3.82 1.02-0.887 0.687-1.33 1.613-1.33 2.78v0c0 0.733 0.233 1.367 0.7 1.9 0.467 0.533 1.157 0.99 2.07 1.37 0.92 0.387 2.047 0.713 3.38 0.98v0c1.6 0.3 3.077 0.69 4.43 1.17 1.347 0.487 2.447 1.22 3.3 2.2 0.847 0.987 1.27 2.38 1.27 4.18v0c0.033 1.5-0.333 2.833-1.1 4-0.767 1.167-1.84 2.073-3.22 2.72-1.387 0.653-3.047 0.98-4.98 0.98z" fill="#000000" fill-rule="nonzero" stroke="none" stroke-width="1" stroke-linecap="butt" stroke-linejoin="miter" stroke-miterlimit="10" stroke-dasharray="" stroke-dashoffset="0" font-family="none" font-weight="none" font-size="none" text-anchor="none" style="mix-blend-mode: normal" data-fill-palette-color="primary" opacity="1"></path><path transform="translate(0,39.8)" d="M7.4 0h-3.5v-35h10.8c2.7 0 4.91 0.45 6.63 1.35 1.713 0.9 2.97 2.107 3.77 3.62 0.8 1.52 1.2 3.247 1.2 5.18v0c0 1.867-0.417 3.573-1.25 5.12-0.833 1.553-2.117 2.787-3.85 3.7-1.733 0.92-3.983 1.38-6.75 1.38v0h-7.05zM26.7 0h-4.2l-7.85-15.75h4zM7.4-32.05v14.55h7.05c2.833 0 4.917-0.683 6.25-2.05 1.333-1.367 2-3.133 2-5.3v0c0-2.233-0.65-3.993-1.95-5.28-1.3-1.28-3.417-1.92-6.35-1.92v0zM40.35 0.6v0c-2.033 0-3.727-0.367-5.08-1.1-1.347-0.733-2.347-1.683-3-2.85-0.647-1.167-0.97-2.45-0.97-3.85v0c0-1.733 0.443-3.2 1.33-4.4 0.88-1.2 2.13-2.1 3.75-2.7 1.613-0.6 3.47-0.9 5.57-0.9v0h6.8c0-1.633-0.25-3.017-0.75-4.15-0.5-1.133-1.223-1.993-2.17-2.58-0.953-0.58-2.163-0.87-3.63-0.87v0c-1.733 0-3.217 0.433-4.45 1.3-1.233 0.867-2 2.133-2.3 3.8v0h-3.65c0.2-1.767 0.81-3.25 1.83-4.45 1.013-1.2 2.277-2.11 3.79-2.73 1.52-0.613 3.113-0.92 4.78-0.92v0c2.3 0 4.193 0.44 5.68 1.32 1.48 0.887 2.577 2.097 3.29 3.63 0.72 1.533 1.08 3.3 1.08 5.3v0 15.55h-3.2l-0.15-4.6v0c-0.333 0.7-0.757 1.367-1.27 2-0.52 0.633-1.12 1.183-1.8 1.65-0.687 0.467-1.48 0.843-2.38 1.13-0.9 0.28-1.933 0.42-3.1 0.42zM40.75-2.5v0c1.267 0 2.383-0.25 3.35-0.75 0.967-0.5 1.8-1.167 2.5-2 0.7-0.833 1.233-1.783 1.6-2.85 0.367-1.067 0.55-2.15 0.55-3.25v0-0.9h-6.55c-1.767 0-3.183 0.217-4.25 0.65-1.067 0.433-1.833 1.017-2.3 1.75-0.467 0.733-0.7 1.583-0.7 2.55v0c0 0.967 0.227 1.807 0.68 2.52 0.447 0.72 1.103 1.28 1.97 1.68 0.867 0.4 1.917 0.6 3.15 0.6zM71.7 0.6v0c-1.467 0-2.81-0.227-4.03-0.68-1.213-0.447-2.27-1.063-3.17-1.85-0.9-0.78-1.617-1.67-2.15-2.67v0 0l-0.3 4.6h-3.2v-36h3.5v15.35c0.833-1.433 2.033-2.65 3.6-3.65 1.567-1 3.483-1.5 5.75-1.5v0c2.467 0 4.617 0.573 6.45 1.72 1.833 1.153 3.243 2.72 4.23 4.7 0.98 1.987 1.47 4.247 1.47 6.78v0c0 2.533-0.5 4.8-1.5 6.8-1 2-2.407 3.567-4.22 4.7-1.82 1.133-3.963 1.7-6.43 1.7zM71.45-2.45v0c1.767 0 3.31-0.427 4.63-1.28 1.313-0.847 2.343-2.03 3.09-3.55 0.753-1.513 1.13-3.287 1.13-5.32v0c0-2.067-0.377-3.86-1.13-5.38-0.747-1.513-1.787-2.687-3.12-3.52-1.333-0.833-2.867-1.25-4.6-1.25v0c-1.733 0-3.273 0.417-4.62 1.25-1.353 0.833-2.407 2.017-3.16 3.55-0.747 1.533-1.12 3.317-1.12 5.35v0c0 2.067 0.373 3.857 1.12 5.37 0.753 1.52 1.807 2.697 3.16 3.53 1.347 0.833 2.887 1.25 4.62 1.25zM100.95 0.6v0c-2.3 0-4.377-0.543-6.23-1.63-1.847-1.08-3.303-2.613-4.37-4.6-1.067-1.98-1.6-4.287-1.6-6.92v0c0-2.733 0.543-5.083 1.63-7.05 1.08-1.967 2.553-3.493 4.42-4.58 1.867-1.08 3.95-1.62 6.25-1.62v0c2.4 0 4.517 0.54 6.35 1.62 1.833 1.087 3.283 2.613 4.35 4.58 1.067 1.967 1.6 4.317 1.6 7.05v0c0 2.633-0.543 4.94-1.63 6.92-1.08 1.987-2.543 3.52-4.39 4.6-1.853 1.087-3.98 1.63-6.38 1.63zM101-2.4v0c1.567 0 3.01-0.383 4.33-1.15 1.313-0.767 2.38-1.91 3.2-3.43 0.813-1.513 1.22-3.387 1.22-5.62v0c0-2.267-0.4-4.15-1.2-5.65-0.8-1.5-1.857-2.627-3.17-3.38-1.32-0.747-2.763-1.12-4.33-1.12v0c-1.5 0-2.917 0.383-4.25 1.15-1.333 0.767-2.407 1.89-3.22 3.37-0.82 1.487-1.23 3.363-1.23 5.63v0c0 2.233 0.4 4.107 1.2 5.62 0.8 1.52 1.857 2.663 3.17 3.43 1.32 0.767 2.747 1.15 4.28 1.15zM128.45 0.6v0c-1.9 0-3.577-0.377-5.03-1.13-1.447-0.747-2.57-1.903-3.37-3.47-0.8-1.567-1.2-3.55-1.2-5.95v0-15.25h3.5v14.85c0 2.667 0.593 4.65 1.78 5.95 1.18 1.3 2.82 1.95 4.92 1.95v0c1.5 0 2.84-0.36 4.02-1.08 1.187-0.713 2.123-1.753 2.81-3.12 0.68-1.367 1.02-3.05 1.02-5.05v0-13.5h3.5v25.2h-3.2l-0.2-4.5v0c-0.8 1.6-1.957 2.85-3.47 3.75-1.52 0.9-3.213 1.35-5.08 1.35zM158.55 0.6v0c-2.467 0-4.607-0.577-6.42-1.73-1.82-1.147-3.23-2.72-4.23-4.72-1-2-1.5-4.267-1.5-6.8v0c0-2.533 0.5-4.793 1.5-6.78 1-1.98 2.417-3.537 4.25-4.67 1.833-1.133 3.983-1.7 6.45-1.7v0c2.1 0 3.957 0.457 5.57 1.37 1.62 0.92 2.863 2.213 3.73 3.88v0-15.45h3.5v36h-3.2l-0.3-4.55v0c-0.5 0.867-1.183 1.7-2.05 2.5-0.867 0.8-1.91 1.44-3.13 1.92-1.213 0.487-2.603 0.73-4.17 0.73zM158.8-2.45v0c1.767 0 3.307-0.427 4.62-1.28 1.32-0.847 2.363-2.03 3.13-3.55 0.767-1.513 1.15-3.287 1.15-5.32v0c0-2.033-0.383-3.817-1.15-5.35-0.767-1.533-1.81-2.717-3.13-3.55-1.313-0.833-2.853-1.25-4.62-1.25v0c-1.7 0-3.227 0.417-4.58 1.25-1.347 0.833-2.397 2.007-3.15 3.52-0.747 1.52-1.12 3.313-1.12 5.38v0c0 2.067 0.383 3.857 1.15 5.37 0.767 1.52 1.817 2.697 3.15 3.53 1.333 0.833 2.85 1.25 4.55 1.25zM182.5 0h-3.5v-25.2h3.5zM180.75-31.15v0c-0.7 0-1.3-0.243-1.8-0.73-0.5-0.48-0.75-1.087-0.75-1.82v0c0-0.767 0.24-1.373 0.72-1.82 0.487-0.453 1.097-0.68 1.83-0.68v0c0.667 0 1.25 0.227 1.75 0.68 0.5 0.447 0.75 1.053 0.75 1.82v0c0 0.733-0.243 1.34-0.73 1.82-0.48 0.487-1.07 0.73-1.77 0.73z" fill="#000000" fill-rule="nonzero" stroke="none" stroke-width="1" stroke-linecap="butt" stroke-linejoin="miter" stroke-miterlimit="10" stroke-dasharray="" stroke-dashoffset="0" font-family="none" font-weight="none" font-size="none" text-anchor="none" style="mix-blend-mode: normal" data-fill-palette-color="primary" opacity="1"></path></g></svg></g></svg></g></svg></g></svg></g><g transform="matrix(1,0,0,1,0,0.4388540841928972)"><svg viewBox="0 0 191.82900175030684 175.54163367716757" height="175.54163367716757" width="191.82900175030684"><g><svg xmlns:x="http://ns.adobe.com/Extensibility/1.0/" xmlns:i="http://ns.adobe.com/AdobeIllustrator/10.0/" xmlns:graph="http://ns.adobe.com/Graphs/1.0/" xmlns="http://www.w3.org/2000/svg" xmlns:xlink="http://www.w3.org/1999/xlink" version="1.1" x="0" y="0" viewBox="2.3 6.4 95.4 87.3" enable-background="new 0 0 100 100" xml:space="preserve" height="175.54163367716757" width="191.82900175030684" class="icon-icon-0" data-fill-palette-color="accent" id="icon-0"><g fill="#111111" data-fill-palette-color="accent"><g fill="#111111" data-fill-palette-color="accent"><path d="M10 75.9H41.4V84.5H35.3C34.3 84.5 33.4 85.3 33.4 86.4V91.8C33.4 92.8 34.2 93.7 35.3 93.7H64.8C65.8 93.7 66.7 92.9 66.7 91.8V86.4C66.7 85.4 65.9 84.5 64.8 84.5H58.7V75.9H90C94.3 75.9 97.7 72.4 97.7 68.2V14.1C97.7 9.8 94.2 6.4 90 6.4H10C5.7 6.4 2.3 9.9 2.3 14.1V68.2C2.3 72.5 5.7 75.9 10 75.9M12.8 16.9H87.3V65.3H12.8zM50 22.7C39.8 22.7 31.6 31 31.6 41.1 31.6 51.3 39.9 59.5 50 59.5S68.4 51.2 68.4 41.1 60.2 22.7 50 22.7M44.6 28.5C43.5 30.1 42.4 32 41.6 34.5H38C39.5 31.8 41.8 29.7 44.6 28.5M36.8 45C36.4 43.8 36.2 42.5 36.2 41.1S36.4 38.4 36.8 37.2H41C40.8 38.4 40.7 39.7 40.7 41.1S40.8 43.8 41 45zM38 47.8H41.6C42.3 50.2 43.4 52.2 44.6 53.8 41.8 52.5 39.5 50.4 38 47.8M48.6 54.3C47.3 53 45.6 50.8 44.5 47.8H48.6zM48.6 45H43.8C43.6 43.8 43.4 42.5 43.4 41.1S43.5 38.4 43.8 37.2H48.7V45zM48.6 34.5H44.5C45.6 31.5 47.3 29.3 48.6 28zM62 34.5H58.4C57.7 32.1 56.6 30.1 55.4 28.5 58.2 29.7 60.5 31.8 62 34.5M51.4 28C52.7 29.3 54.4 31.5 55.5 34.5H51.4zM51.4 37.2H56.2C56.4 38.4 56.6 39.7 56.6 41.1S56.5 43.8 56.2 45H51.3V37.2zM51.4 47.8H55.5C54.4 50.8 52.7 53 51.4 54.3zM55.4 53.7C56.5 52.1 57.6 50.2 58.4 47.7H62C60.5 50.4 58.2 52.5 55.4 53.7M63.7 41.1C63.7 42.5 63.5 43.8 63.1 45H59C59.2 43.8 59.3 42.5 59.3 41.1S59.2 38.4 59 37.2H63.1C63.5 38.5 63.7 39.8 63.7 41.1" fill="#000000" data-fill-palette-color="accent"></path></g></g></svg><g></g></g></svg></g></svg></g><defs></defs></svg><rect width="395.52" height="110.23542003018619" fill="none" stroke="none" visibility="hidden"></rect></g></svg></g></svg>