<svg xmlns="http://www.w3.org/2000/svg" version="1.1" xmlns:xlink="http://www.w3.org/1999/xlink" xmlns:svgjs="http://svgjs.dev/svgjs" width="1500" height="1500" viewBox="0 0 1500 1500"><rect width="1500" height="1500" fill="#ffffff"></rect><g transform="matrix(0.6666666666666666,0,0,0.6666666666666666,249.39393939393938,614.9278544523692)"><svg viewBox="0 0 396 107" data-background-color="#ffffff" preserveAspectRatio="xMidYMid meet" height="405" width="1500" xmlns="http://www.w3.org/2000/svg" xmlns:xlink="http://www.w3.org/1999/xlink"><g id="tight-bounds" transform="matrix(1,0,0,1,0.2400000000000091,0.028591013320379943)"><svg viewBox="0 0 395.52 106.94281797335924" height="106.94281797335924" width="395.52"><g><svg viewBox="0 0 621.8056893833007 168.12715578104138" height="106.94281797335924" width="395.52"><g><rect width="6.971767717089581" height="168.12715578104138" x="201.06322083613367" y="0" fill="#000000" opacity="1" stroke-width="0" stroke="transparent" fill-opacity="1" class="rect-yte-0" data-fill-palette-color="primary" rx="1%" id="yte-0" data-palette-color="#111111"></rect></g><g transform="matrix(1,0,0,1,226.2856893833007,0.41822675567422607)"><svg viewBox="0 0 395.52 167.29070226969293" height="167.29070226969293" width="395.52"><g id="textblocktransform"><svg viewBox="0 0 395.52 167.29070226969293" height="167.29070226969293" width="395.52" id="textblock"><g><svg viewBox="0 0 395.52 167.29070226969293" height="167.29070226969293" width="395.52"><g transform="matrix(1,0,0,1,0,0)"><svg width="395.52" viewBox="3.55 -35 187.24999999999997 75.2" height="167.29070226969293" data-palette-color="#111111"><svg></svg><svg></svg><g class="wordmark-text-0" data-fill-palette-color="primary" id="text-0"><path d="M8.85 0h-5.3v-35h21.95v4.3h-16.65v11.05h13.8v4.25h-13.8zM37 0.6v0c-2.1 0-3.833-0.35-5.2-1.05-1.367-0.7-2.383-1.627-3.05-2.78-0.667-1.147-1-2.403-1-3.77v0c0-2.4 0.933-4.3 2.8-5.7 1.867-1.4 4.533-2.1 8-2.1v0h6.5v-0.45c0-1.933-0.523-3.383-1.57-4.35-1.053-0.967-2.413-1.45-4.08-1.45v0c-1.467 0-2.74 0.357-3.82 1.07-1.087 0.72-1.747 1.78-1.98 3.18v0h-5.3c0.167-1.8 0.777-3.343 1.83-4.63 1.047-1.28 2.38-2.263 4-2.95 1.613-0.68 3.387-1.02 5.32-1.02v0c3.467 0 6.15 0.907 8.05 2.72 1.9 1.82 2.85 4.297 2.85 7.43v0 15.25h-4.6l-0.45-4.25c-0.7 1.367-1.717 2.517-3.05 3.45-1.333 0.933-3.083 1.4-5.25 1.4zM38.05-3.7v0c1.433 0 2.643-0.343 3.63-1.03 0.98-0.68 1.747-1.587 2.3-2.72 0.547-1.133 0.887-2.383 1.02-3.75v0h-5.9c-2.1 0-3.59 0.367-4.47 1.1-0.887 0.733-1.33 1.65-1.33 2.75v0c0 1.133 0.427 2.027 1.28 2.68 0.847 0.647 2.003 0.97 3.47 0.97zM61.85 0h-5.3v-24.8h4.75l0.45 4.7c0.867-1.633 2.077-2.927 3.63-3.88 1.547-0.947 3.42-1.42 5.62-1.42v0 5.55h-1.45c-1.467 0-2.773 0.24-3.92 0.72-1.153 0.487-2.07 1.303-2.75 2.45-0.687 1.153-1.03 2.747-1.03 4.78v0zM86.45 0.6v0c-2.433 0-4.593-0.543-6.48-1.63-1.88-1.08-3.353-2.587-4.42-4.52-1.067-1.933-1.6-4.183-1.6-6.75v0c0-2.6 0.527-4.883 1.58-6.85 1.047-1.967 2.51-3.5 4.39-4.6 1.887-1.1 4.08-1.65 6.58-1.65v0c2.433 0 4.55 0.54 6.35 1.62 1.8 1.087 3.2 2.53 4.2 4.33 1 1.8 1.5 3.783 1.5 5.95v0c0 0.333-0.007 0.69-0.02 1.07-0.02 0.387-0.047 0.813-0.08 1.28v0h-19.3c0.167 2.4 0.96 4.223 2.38 5.47 1.413 1.253 3.053 1.88 4.92 1.88v0c1.5 0 2.757-0.343 3.77-1.03 1.02-0.68 1.78-1.603 2.28-2.77v0h5.3c-0.667 2.333-1.99 4.283-3.97 5.85-1.987 1.567-4.447 2.35-7.38 2.35zM86.45-21.05v0c-1.767 0-3.333 0.523-4.7 1.57-1.367 1.053-2.2 2.63-2.5 4.73v0h14c-0.1-1.933-0.783-3.467-2.05-4.6-1.267-1.133-2.85-1.7-4.75-1.7zM113.95 0.6v0c-3.133 0-5.717-0.767-7.75-2.3-2.033-1.533-3.2-3.567-3.5-6.1v0h5.35c0.267 1.133 0.9 2.107 1.9 2.92 1 0.82 2.317 1.23 3.95 1.23v0c1.6 0 2.767-0.333 3.5-1 0.733-0.667 1.1-1.433 1.1-2.3v0c0-1.267-0.507-2.127-1.52-2.58-1.02-0.447-2.43-0.853-4.23-1.22v0c-1.4-0.3-2.79-0.7-4.17-1.2-1.387-0.5-2.537-1.21-3.45-2.13-0.92-0.913-1.38-2.153-1.38-3.72v0c0-2.167 0.833-3.977 2.5-5.43 1.667-1.447 4-2.17 7-2.17v0c2.767 0 5.01 0.667 6.73 2 1.713 1.333 2.72 3.217 3.02 5.65v0h-5.1c-0.167-1.067-0.657-1.9-1.47-2.5-0.82-0.6-1.913-0.9-3.28-0.9v0c-1.333 0-2.367 0.273-3.1 0.82-0.733 0.553-1.1 1.263-1.1 2.13v0c0 0.867 0.51 1.55 1.53 2.05 1.013 0.5 2.353 0.95 4.02 1.35v0c1.667 0.367 3.21 0.79 4.63 1.27 1.413 0.487 2.553 1.197 3.42 2.13 0.867 0.933 1.3 2.3 1.3 4.1v0c0.033 2.267-0.84 4.15-2.62 5.65-1.787 1.5-4.213 2.25-7.28 2.25z" fill="#000000" fill-rule="nonzero" stroke="none" stroke-width="1" stroke-linecap="butt" stroke-linejoin="miter" stroke-miterlimit="10" stroke-dasharray="" stroke-dashoffset="0" font-family="none" font-weight="none" font-size="none" text-anchor="none" style="mix-blend-mode: normal" data-fill-palette-color="primary" opacity="1"></path><path transform="translate(0,39.6)" d="M8.85 0h-5.3v-35h12.05c2.767 0 5.043 0.467 6.83 1.4 1.78 0.933 3.103 2.19 3.97 3.77 0.867 1.587 1.3 3.347 1.3 5.28v0c0 2.167-0.573 4.133-1.72 5.9-1.153 1.767-2.947 3.033-5.38 3.8v0l7.45 14.85h-6.15l-6.8-14.1h-6.25zM8.85-30.55v12.45h6.45c2.4 0 4.16-0.583 5.28-1.75 1.113-1.167 1.67-2.683 1.67-4.55v0c0-1.867-0.55-3.36-1.65-4.48-1.1-1.113-2.883-1.67-5.35-1.67v0zM41.35 0.6v0c-2.1 0-3.833-0.35-5.2-1.05-1.367-0.7-2.383-1.627-3.05-2.78-0.667-1.147-1-2.403-1-3.77v0c0-2.4 0.933-4.3 2.8-5.7 1.867-1.4 4.533-2.1 8-2.1v0h6.5v-0.45c0-1.933-0.523-3.383-1.57-4.35-1.053-0.967-2.413-1.45-4.08-1.45v0c-1.467 0-2.74 0.357-3.82 1.07-1.087 0.72-1.747 1.78-1.98 3.18v0h-5.3c0.167-1.8 0.777-3.343 1.83-4.63 1.047-1.28 2.38-2.263 4-2.95 1.613-0.68 3.387-1.02 5.32-1.02v0c3.467 0 6.15 0.907 8.05 2.72 1.9 1.82 2.85 4.297 2.85 7.43v0 15.25h-4.6l-0.45-4.25c-0.7 1.367-1.717 2.517-3.05 3.45-1.333 0.933-3.083 1.4-5.25 1.4zM42.4-3.7v0c1.433 0 2.643-0.343 3.63-1.03 0.98-0.68 1.747-1.587 2.3-2.72 0.547-1.133 0.887-2.383 1.02-3.75v0h-5.9c-2.1 0-3.59 0.367-4.47 1.1-0.887 0.733-1.33 1.65-1.33 2.75v0c0 1.133 0.427 2.027 1.28 2.68 0.847 0.647 2.003 0.97 3.47 0.97zM74.85 0.6v0c-1.933 0-3.64-0.383-5.12-1.15-1.487-0.767-2.663-1.85-3.53-3.25v0l-0.55 3.8h-4.75v-36h5.3v15.05c0.8-1.167 1.9-2.2 3.3-3.1 1.4-0.9 3.2-1.35 5.4-1.35v0c2.4 0 4.517 0.567 6.35 1.7 1.833 1.133 3.277 2.683 4.33 4.65 1.047 1.967 1.57 4.2 1.57 6.7v0c0 2.5-0.523 4.723-1.57 6.67-1.053 1.953-2.497 3.49-4.33 4.61-1.833 1.113-3.967 1.67-6.4 1.67zM73.95-4v0c2.267 0 4.133-0.777 5.6-2.33 1.467-1.547 2.2-3.57 2.2-6.07v0c0-1.633-0.333-3.083-1-4.35-0.667-1.267-1.583-2.26-2.75-2.98-1.167-0.713-2.517-1.07-4.05-1.07v0c-2.267 0-4.123 0.783-5.57 2.35-1.453 1.567-2.18 3.583-2.18 6.05v0c0 2.5 0.727 4.523 2.18 6.07 1.447 1.553 3.303 2.33 5.57 2.33zM104.5 0.6v0c-2.367 0-4.49-0.543-6.37-1.63-1.887-1.08-3.38-2.597-4.48-4.55-1.1-1.947-1.65-4.22-1.65-6.82v0c0-2.6 0.56-4.877 1.68-6.83 1.113-1.947 2.62-3.463 4.52-4.55 1.9-1.08 4.017-1.62 6.35-1.62v0c2.367 0 4.493 0.54 6.38 1.62 1.88 1.087 3.38 2.603 4.5 4.55 1.113 1.953 1.67 4.23 1.67 6.83v0c0 2.6-0.557 4.873-1.67 6.82-1.12 1.953-2.63 3.47-4.53 4.55-1.9 1.087-4.033 1.63-6.4 1.63zM104.5-3.95v0c1.267 0 2.443-0.317 3.53-0.95 1.08-0.633 1.953-1.577 2.62-2.83 0.667-1.247 1-2.803 1-4.67v0c0-1.867-0.323-3.423-0.97-4.67-0.653-1.253-1.52-2.197-2.6-2.83-1.087-0.633-2.263-0.95-3.53-0.95v0c-1.267 0-2.44 0.317-3.52 0.95-1.087 0.633-1.963 1.577-2.63 2.83-0.667 1.247-1 2.803-1 4.67v0c0 1.867 0.333 3.423 1 4.67 0.667 1.253 1.533 2.197 2.6 2.83 1.067 0.633 2.233 0.95 3.5 0.95zM132 0.6v0c-3 0-5.357-0.933-7.07-2.8-1.72-1.867-2.58-4.65-2.58-8.35v0-14.25h5.3v13.7c0 4.8 1.967 7.2 5.9 7.2v0c1.967 0 3.583-0.7 4.85-2.1 1.267-1.4 1.9-3.4 1.9-6v0-12.8h5.3v24.8h-4.7l-0.4-4.35c-0.767 1.533-1.89 2.74-3.37 3.62-1.487 0.887-3.197 1.33-5.13 1.33zM163.65 0.6v0c-2.4 0-4.517-0.567-6.35-1.7-1.833-1.133-3.267-2.683-4.3-4.65-1.033-1.967-1.55-4.2-1.55-6.7v0c0-2.5 0.517-4.727 1.55-6.68 1.033-1.947 2.473-3.48 4.32-4.6 1.853-1.113 3.98-1.67 6.38-1.67v0c1.967 0 3.693 0.383 5.18 1.15 1.48 0.767 2.637 1.85 3.47 3.25v0-15h5.3v36h-4.75l-0.55-3.85c-0.8 1.167-1.9 2.2-3.3 3.1-1.4 0.9-3.2 1.35-5.4 1.35zM164.6-4v0c2.267 0 4.127-0.783 5.58-2.35 1.447-1.567 2.17-3.583 2.17-6.05v0c0-2.5-0.723-4.527-2.17-6.08-1.453-1.547-3.313-2.32-5.58-2.32v0c-2.267 0-4.133 0.773-5.6 2.32-1.467 1.553-2.2 3.58-2.2 6.08v0c0 1.633 0.333 3.083 1 4.35 0.667 1.267 1.59 2.257 2.77 2.97 1.187 0.72 2.53 1.08 4.03 1.08zM187.35-29.5v0c-1 0-1.823-0.31-2.47-0.93-0.653-0.613-0.98-1.387-0.98-2.32v0c0-0.933 0.327-1.71 0.98-2.33 0.647-0.613 1.47-0.92 2.47-0.92v0c1 0 1.823 0.307 2.47 0.92 0.653 0.62 0.98 1.397 0.98 2.33v0c0 0.933-0.327 1.707-0.98 2.32-0.647 0.62-1.47 0.93-2.47 0.93zM190 0h-5.3v-24.8h5.3z" fill="#000000" fill-rule="nonzero" stroke="none" stroke-width="1" stroke-linecap="butt" stroke-linejoin="miter" stroke-miterlimit="10" stroke-dasharray="" stroke-dashoffset="0" font-family="none" font-weight="none" font-size="none" text-anchor="none" style="mix-blend-mode: normal" data-fill-palette-color="primary" opacity="1"></path></g></svg></g></svg></g></svg></g></svg></g><g transform="matrix(1,0,0,1,0,0.41822675567422607)"><svg viewBox="0 0 182.81252000605622 167.29070226969293" height="167.29070226969293" width="182.81252000605622"><g><svg xmlns:x="http://ns.adobe.com/Extensibility/1.0/" xmlns:i="http://ns.adobe.com/AdobeIllustrator/10.0/" xmlns:graph="http://ns.adobe.com/Graphs/1.0/" xmlns="http://www.w3.org/2000/svg" xmlns:xlink="http://www.w3.org/1999/xlink" version="1.1" x="0" y="0" viewBox="2.3 6.4 95.4 87.3" enable-background="new 0 0 100 100" xml:space="preserve" height="167.29070226969293" width="182.81252000605622" class="icon-icon-0" data-fill-palette-color="accent" id="icon-0"><g fill="#111111" data-fill-palette-color="accent"><g fill="#111111" data-fill-palette-color="accent"><path d="M10 75.9H41.4V84.5H35.3C34.3 84.5 33.4 85.3 33.4 86.4V91.8C33.4 92.8 34.2 93.7 35.3 93.7H64.8C65.8 93.7 66.7 92.9 66.7 91.8V86.4C66.7 85.4 65.9 84.5 64.8 84.5H58.7V75.9H90C94.3 75.9 97.7 72.4 97.7 68.2V14.1C97.7 9.8 94.2 6.4 90 6.4H10C5.7 6.4 2.3 9.9 2.3 14.1V68.2C2.3 72.5 5.7 75.9 10 75.9M12.8 16.9H87.3V65.3H12.8zM50 22.7C39.8 22.7 31.6 31 31.6 41.1 31.6 51.3 39.9 59.5 50 59.5S68.4 51.2 68.4 41.1 60.2 22.7 50 22.7M44.6 28.5C43.5 30.1 42.4 32 41.6 34.5H38C39.5 31.8 41.8 29.7 44.6 28.5M36.8 45C36.4 43.8 36.2 42.5 36.2 41.1S36.4 38.4 36.8 37.2H41C40.8 38.4 40.7 39.7 40.7 41.1S40.8 43.8 41 45zM38 47.8H41.6C42.3 50.2 43.4 52.2 44.6 53.8 41.8 52.5 39.5 50.4 38 47.8M48.6 54.3C47.3 53 45.6 50.8 44.5 47.8H48.6zM48.6 45H43.8C43.6 43.8 43.4 42.5 43.4 41.1S43.5 38.4 43.8 37.2H48.7V45zM48.6 34.5H44.5C45.6 31.5 47.3 29.3 48.6 28zM62 34.5H58.4C57.7 32.1 56.6 30.1 55.4 28.5 58.2 29.7 60.5 31.8 62 34.5M51.4 28C52.7 29.3 54.4 31.5 55.5 34.5H51.4zM51.4 37.2H56.2C56.4 38.4 56.6 39.7 56.6 41.1S56.5 43.8 56.2 45H51.3V37.2zM51.4 47.8H55.5C54.4 50.8 52.7 53 51.4 54.3zM55.4 53.7C56.5 52.1 57.6 50.2 58.4 47.7H62C60.5 50.4 58.2 52.5 55.4 53.7M63.7 41.1C63.7 42.5 63.5 43.8 63.1 45H59C59.2 43.8 59.3 42.5 59.3 41.1S59.2 38.4 59 37.2H63.1C63.5 38.5 63.7 39.8 63.7 41.1" fill="#000000" data-fill-palette-color="accent"></path></g></g></svg><g></g></g></svg></g></svg></g><defs></defs></svg><rect width="395.52" height="106.94281797335924" fill="none" stroke="none" visibility="hidden"></rect></g></svg></g></svg>